<?xml version="1.0" ?><svg xmlns="http://www.w3.org/2000/svg" width="24" height="24" viewBox="0 0 24 24" fill="none"><path fill-rule="evenodd" clip-rule="evenodd" d="M7.05146 2.93718C7.05278 2.8691 7.10834 2.81461 7.17643 2.81461H8.72029V2.06461H7.17643C6.6998 2.06461 6.31085 2.44608 6.3016 2.92262L6.2696 4.57058L7.01946 4.58514L7.05146 2.93718ZM15.3212 2.81461H16.8139C16.883 2.81461 16.9389 2.87057 16.9389 2.93961V4.57786H17.6889V2.93961C17.6889 2.45636 17.2972 2.06461 16.8139 2.06461H15.3212V2.81461ZM7.0502 12.6756L7.01944 11.2779L6.26962 11.2944L6.30038 12.6921C6.31084 13.1677 6.69942 13.5478 7.17517 13.5478H8.72029V12.7978H7.17517C7.1072 12.7978 7.05169 12.7435 7.0502 12.6756ZM16.9389 11.2861V12.6728C16.9389 12.7418 16.883 12.7978 16.8139 12.7978H15.3212V13.5478H16.8139C17.2972 13.5478 17.6889 13.1561 17.6889 12.6728V11.2861H16.9389ZM12 11.7939C14.1468 11.7939 15.8997 10.0343 15.8997 7.84811C15.8997 5.66193 14.1468 3.90234 12 3.90234C9.85321 3.90234 8.10031 5.66193 8.10031 7.84811C8.10031 10.0343 9.85321 11.7939 12 11.7939ZM12 12.5439C14.568 12.5439 16.6497 10.4415 16.6497 7.84811C16.6497 5.25471 14.568 3.15234 12 3.15234C9.43204 3.15234 7.35031 5.25471 7.35031 7.84811C7.35031 10.4415 9.43204 12.5439 12 12.5439ZM18.0446 15.1722H5.95541C4.57205 15.1722 3.45062 16.2936 3.45062 17.6769V20.0755C3.45062 20.6885 3.94753 21.1854 4.5605 21.1854H19.4395C20.0525 21.1854 20.5494 20.6885 20.5494 20.0755V17.677C20.5494 16.2936 19.428 15.1722 18.0446 15.1722ZM5.95541 14.4222C4.15784 14.4222 2.70062 15.8794 2.70062 17.6769V20.0755C2.70062 21.1027 3.53332 21.9354 4.5605 21.9354H19.4395C20.4667 21.9354 21.2994 21.1027 21.2994 20.0755V17.677C21.2994 15.8794 19.8422 14.4222 18.0446 14.4222H5.95541Z" fill="black"/></svg>